<?xml version="1.0" encoding="utf-8"?>
<!-- Generator: Adobe Illustrator 22.1.0, SVG Export Plug-In . SVG Version: 6.00 Build 0)  -->
<svg version="1.1" id="Layer_2" xmlns="http://www.w3.org/2000/svg" xmlns:xlink="http://www.w3.org/1999/xlink" x="0px" y="0px"
	 viewBox="0 0 612 792" style="enable-background:new 0 0 612 792;" xml:space="preserve">
<style type="text/css">
	.st0{fill:#FFFFFF;}
</style>
<g>
	<polygon class="st0" points="606,72 606,24 6,24 6,72 6,77 6,265 59,265 59,77 553,77 553,265 606,265 606,72 	"/>
	<polygon class="st0" points="228,569.9 142.9,569.9 142.9,624.3 252.9,624.3 252.9,623.8 281,623.8 281,127 246,127 228,127 
		109.3,127 109.3,158.5 109.3,179.8 109.3,265 162,265 162,179.8 228,179.8 	"/>
	<polygon class="st0" points="366.1,126.8 331.1,126.8 331.1,623.5 359.2,623.5 359.2,624 469.2,624 469.2,569.7 384.1,569.7 
		384.1,179.5 450.2,179.5 450.2,264.8 502.9,264.8 502.9,179.5 502.9,158.3 502.9,126.8 384.1,126.8 	"/>
	<rect x="142.9" y="673.8" class="st0" width="325.1" height="54.3"/>
</g>
</svg>
